<?xml version="1.0" ?><!DOCTYPE svg  PUBLIC '-//W3C//DTD SVG 1.1//EN'  'http://www.w3.org/Graphics/SVG/1.1/DTD/svg11.dtd'><svg enable-background="new 0 0 128 128" id="Слой_1" version="1.1" viewBox="0 0 128 128" xml:space="preserve" xmlns="http://www.w3.org/2000/svg" xmlns:xlink="http://www.w3.org/1999/xlink"><g><g><g><path d="M69.667,110H33.5c-1.654,0-3-1.346-3-3V21c0-1.654,1.346-3,3-3h61c1.654,0,3,1.346,3,3v45.833     c0,0.552-0.448,1-1,1s-1-0.448-1-1V21c0-0.551-0.449-1-1-1h-61c-0.551,0-1,0.449-1,1v86c0,0.551,0.449,1,1,1h36.167     c0.552,0,1,0.448,1,1S70.219,110,69.667,110z" fill="#323638"/></g><g><g><path d="M81,28.5H47c-0.276,0-0.5-0.224-0.5-0.5s0.224-0.5,0.5-0.5h34c0.276,0,0.5,0.224,0.5,0.5      S81.276,28.5,81,28.5z" fill="#323638"/></g><g><path d="M91,78" fill="none" stroke="#323638" stroke-miterlimit="10"/></g><g><path d="M91,66.5H77c-0.276,0-0.5-0.224-0.5-0.5s0.224-0.5,0.5-0.5h14c0.276,0,0.5,0.224,0.5,0.5      S91.276,66.5,91,66.5z" fill="#323638"/></g><g><path d="M91,36.5H37c-0.276,0-0.5-0.224-0.5-0.5s0.224-0.5,0.5-0.5h54c0.276,0,0.5,0.224,0.5,0.5      S91.276,36.5,91,36.5z" fill="#323638"/></g><g><path d="M91,42.5H37c-0.276,0-0.5-0.224-0.5-0.5s0.224-0.5,0.5-0.5h54c0.276,0,0.5,0.224,0.5,0.5      S91.276,42.5,91,42.5z" fill="#323638"/></g><g><path d="M91,48.5H37c-0.276,0-0.5-0.224-0.5-0.5s0.224-0.5,0.5-0.5h54c0.276,0,0.5,0.224,0.5,0.5      S91.276,48.5,91,48.5z" fill="#323638"/></g><g><path d="M91,54.5H37c-0.276,0-0.5-0.224-0.5-0.5s0.224-0.5,0.5-0.5h54c0.276,0,0.5,0.224,0.5,0.5      S91.276,54.5,91,54.5z" fill="#323638"/></g><g><path d="M91,60.5H37c-0.276,0-0.5-0.224-0.5-0.5s0.224-0.5,0.5-0.5h54c0.276,0,0.5,0.224,0.5,0.5      S91.276,60.5,91,60.5z" fill="#323638"/></g></g></g><g><g><path d="M88.951,100.417c-6.974,0-12.648-5.674-12.648-12.648c0-6.975,5.674-12.648,12.648-12.648     c6.975,0,12.648,5.674,12.648,12.648C101.599,94.744,95.925,100.417,88.951,100.417z M88.951,76.621     c-6.147,0-11.148,5.001-11.148,11.148c0,6.147,5.001,11.148,11.148,11.148c6.147,0,11.148-5.001,11.148-11.148     C100.099,81.622,95.098,76.621,88.951,76.621z" fill="#323638"/></g><g><path d="M91.496,120.935c-0.073,0-0.146-0.011-0.217-0.032c-0.26-0.079-0.458-0.292-0.516-0.558l-3.275-15.023     c-0.088-0.405,0.168-0.804,0.573-0.893c0.405-0.092,0.804,0.168,0.893,0.573l2.988,13.708l3.888-3.762     c0.199-0.191,0.485-0.257,0.747-0.176l5.208,1.643l-3.195-14.568c-0.089-0.405,0.167-0.805,0.572-0.893     c0.405-0.09,0.804,0.167,0.893,0.572l3.473,15.834c0.058,0.261-0.029,0.534-0.227,0.714c-0.197,0.181-0.475,0.244-0.731,0.162     l-6.018-1.899l-4.535,4.388C91.875,120.861,91.688,120.935,91.496,120.935z" fill="#323638"/></g><g><path d="M87.029,115.71c-0.192,0-0.38-0.074-0.521-0.211l-4.535-4.388l-6.018,1.899     c-0.254,0.083-0.539,0.019-0.736-0.166c-0.198-0.184-0.281-0.46-0.219-0.723l2.599-10.919c0.096-0.402,0.496-0.655,0.903-0.556     c0.403,0.096,0.652,0.5,0.556,0.903l-2.292,9.632l5.182-1.635c0.262-0.084,0.549-0.016,0.747,0.176l3.91,3.783l1.432-6.019     c0.096-0.402,0.495-0.653,0.903-0.556c0.403,0.096,0.652,0.5,0.556,0.903l-1.737,7.299c-0.062,0.262-0.261,0.471-0.519,0.546     C87.17,115.701,87.099,115.71,87.029,115.71z" fill="#323638"/></g><g><path d="M89,105.853c-1.371,0-2.682-0.586-3.596-1.607c-0.787-0.88-2.025-1.28-3.179-1.033     c-0.337,0.073-0.682,0.11-1.023,0.11c-2.481,0-4.542-1.864-4.795-4.337c-0.121-1.187-0.874-2.223-1.965-2.705     c-1.254-0.554-2.216-1.62-2.64-2.923c-0.423-1.304-0.271-2.731,0.417-3.917c0.6-1.031,0.6-2.312,0-3.343     c-0.689-1.185-0.841-2.613-0.417-3.917c0.424-1.304,1.386-2.37,2.64-2.923c1.091-0.482,1.844-1.518,1.965-2.705     c0.253-2.473,2.314-4.337,4.795-4.337c0.341,0,0.686,0.037,1.023,0.109c1.154,0.25,2.392-0.153,3.18-1.033     c0.914-1.021,2.225-1.607,3.596-1.607s2.682,0.586,3.596,1.607c0.787,0.879,2.023,1.279,3.179,1.033     c0.337-0.073,0.682-0.11,1.023-0.11c2.481,0,4.542,1.864,4.795,4.337c0.121,1.187,0.874,2.223,1.965,2.705     c1.254,0.554,2.216,1.62,2.64,2.923c0.423,1.304,0.271,2.731-0.417,3.917c-0.6,1.031-0.6,2.312,0,3.343     c0.689,1.185,0.841,2.613,0.417,3.917c-0.424,1.304-1.386,2.37-2.64,2.923c-1.091,0.482-1.844,1.518-1.965,2.705     c-0.253,2.473-2.314,4.337-4.795,4.337c-0.342,0-0.686-0.037-1.023-0.11c-1.156-0.247-2.392,0.153-3.179,1.033     C91.682,105.267,90.371,105.853,89,105.853z M82.926,101.638c1.371,0,2.681,0.586,3.596,1.608     c0.63,0.704,1.533,1.107,2.478,1.107s1.848-0.404,2.478-1.107c1.143-1.276,2.939-1.86,4.614-1.499     c0.233,0.05,0.472,0.076,0.707,0.076c1.708,0,3.128-1.285,3.303-2.989c0.176-1.722,1.268-3.226,2.851-3.924     c0.865-0.382,1.528-1.116,1.82-2.015c0.292-0.899,0.187-1.882-0.288-2.699c-0.87-1.496-0.87-3.355,0-4.851     c0.475-0.817,0.58-1.8,0.288-2.699c-0.292-0.898-0.955-1.633-1.82-2.015c-1.583-0.699-2.675-2.203-2.851-3.924     c-0.174-1.704-1.594-2.989-3.303-2.989c-0.235,0-0.473,0.025-0.707,0.076c-1.674,0.361-3.471-0.223-4.613-1.499     c-0.63-0.704-1.534-1.108-2.479-1.108s-1.848,0.404-2.478,1.107c-1.142,1.276-2.937,1.863-4.614,1.499     c-0.233-0.05-0.471-0.076-0.707-0.076c-1.709,0-3.129,1.285-3.303,2.989c-0.176,1.722-1.268,3.226-2.851,3.924     c-0.865,0.382-1.528,1.116-1.82,2.015c-0.292,0.899-0.187,1.882,0.288,2.699c0.87,1.496,0.87,3.355,0,4.851     c-0.475,0.817-0.58,1.8-0.288,2.699c0.292,0.898,0.955,1.633,1.82,2.015c1.583,0.699,2.675,2.203,2.851,3.924     c0.174,1.704,1.594,2.989,3.303,2.989c0.236,0,0.474-0.025,0.707-0.076C82.242,101.674,82.585,101.638,82.926,101.638z" fill="#323638"/></g></g><g><path d="M53.583,94.632c-0.05,0-0.102-0.002-0.155-0.006c-1.665-0.122-1.597-2.101-1.553-3.411    c0.01-0.308,0.025-0.733,0-0.994c-0.023,0.016-0.048,0.033-0.076,0.054c-1.208,0.9-1.111,1.641-1.018,2.357    c0.083,0.643,0.209,1.613-1.307,1.883c-0.652,0.115-1.207-0.127-1.565-0.685c-1.073-1.666-0.196-5.989,1.805-8.897    c0.652-0.948,0.866-1.747,0.602-2.248c-0.251-0.476-0.969-0.759-1.922-0.759c-0.004,0-0.009,0-0.013,0    c-1.679,0.005-3.828,0.872-4.686,2.521c-1.247,2.397,0.778,4.949,2.118,6.638c0.765,0.963,1.186,1.494,1.046,2.004    c-0.539,1.973-4.257,1.491-4.68,1.428c-0.273-0.04-0.462-0.293-0.422-0.566c0.04-0.273,0.297-0.47,0.566-0.423    c1.06,0.154,3.329,0.185,3.571-0.702c-0.047-0.089-0.5-0.66-0.865-1.119c-1.409-1.776-3.768-4.749-2.221-7.721    c1.042-2.001,3.59-3.053,5.57-3.059c0.005,0,0.011,0,0.016,0c1.351,0,2.373,0.471,2.806,1.292    c0.316,0.599,0.458,1.654-0.662,3.281c-1.86,2.704-2.549,6.607-1.789,7.789c0.14,0.217,0.301,0.285,0.549,0.242    c0.578-0.103,0.576-0.115,0.491-0.77c-0.105-0.812-0.265-2.038,1.412-3.288c0.171-0.128,0.693-0.519,1.182-0.261    c0.55,0.288,0.524,1.06,0.491,2.037c-0.053,1.544,0.03,2.336,0.626,2.38c0.479,0.037,0.657-0.241,1.007-0.924    c0.321-0.627,0.765-1.487,1.848-1.304c0.628,0.104,0.993,0.386,1.346,0.659c0.875,0.676,2.199,1.701,9.904,1.4    c0.275-0.006,0.509,0.204,0.519,0.48c0.011,0.276-0.204,0.508-0.48,0.519c-8.071,0.314-9.565-0.843-10.555-1.608    c-0.323-0.25-0.518-0.4-0.897-0.463c-0.302-0.051-0.438,0.078-0.794,0.774C55.078,93.786,54.644,94.632,53.583,94.632z" fill="#323638"/></g></g></svg>